<svg xmlns="http://www.w3.org/2000/svg" xmlns:xlink="http://www.w3.org/1999/xlink" xmlns:inkscape="http://www.inkscape.org/namespaces/inkscape" version="1.1" width="116" height="83" viewBox="0 0 116 83">
<path transform="matrix(1.00002,0,0,-1.00002,57.988817,81.1713)" stroke-width=".79701" stroke-linecap="butt" stroke-miterlimit="10" stroke-linejoin="miter" fill="none" stroke="#000000" d="M-56.69362 0H56.69362"/>
<path transform="matrix(1.00002,0,0,-1.00002,57.988817,81.1713)" stroke-width=".79701" stroke-linecap="butt" stroke-miterlimit="10" stroke-linejoin="miter" fill="none" stroke="#000000" d="M0 0V34.01608"/>
<path transform="matrix(1.00002,0,0,-1.00002,57.988817,81.1713)" stroke-width=".79701" stroke-linecap="butt" stroke-miterlimit="10" stroke-linejoin="miter" fill="none" stroke="#000000" d="M-22.67752 34.01608C-28.3468 56.69362 28.3468 56.69362 22.67752 34.01608 31.18166 45.35506-31.18166 45.35506-22.67752 34.01608Z"/>
<path transform="matrix(1.00002,0,0,-1.00002,57.988817,81.1713)" stroke-width=".79701" stroke-linecap="butt" stroke-miterlimit="10" stroke-linejoin="miter" fill="none" stroke="#000000" d="M42.5202 62.36288C42.5202 67.05965 38.71283 70.867 34.01608 70.867 29.31932 70.867 25.51195 67.05965 25.51195 62.36288 25.51195 57.66612 29.31932 53.85876 34.01608 53.85876 38.71283 53.85876 42.5202 57.66612 42.5202 62.36288ZM34.01608 62.36288"/>
<path transform="matrix(1.00002,0,0,-1.00002,57.988817,81.1713)" stroke-width=".3985" stroke-linecap="butt" stroke-miterlimit="10" stroke-linejoin="miter" fill="none" stroke="#000000" d="M34.01608 62.36288H51.02432"/>
<path transform="matrix(1.00002,0,0,-1.00002,57.988817,81.1713)" stroke-width=".3985" stroke-linecap="butt" stroke-miterlimit="10" stroke-linejoin="miter" fill="none" stroke="#000000" d="M34.01608 62.36288 48.74529 70.867"/>
<path transform="matrix(1.00002,0,0,-1.00002,57.988817,81.1713)" stroke-width=".3985" stroke-linecap="butt" stroke-miterlimit="10" stroke-linejoin="miter" fill="none" stroke="#000000" d="M34.01608 62.36288 42.5202 77.0921"/>
<path transform="matrix(1.00002,0,0,-1.00002,57.988817,81.1713)" stroke-width=".3985" stroke-linecap="butt" stroke-miterlimit="10" stroke-linejoin="miter" fill="none" stroke="#000000" d="M34.01608 62.36288V79.37114"/>
<path transform="matrix(1.00002,0,0,-1.00002,57.988817,81.1713)" stroke-width=".3985" stroke-linecap="butt" stroke-miterlimit="10" stroke-linejoin="miter" fill="none" stroke="#000000" d="M34.01608 62.36288 25.51195 77.0921"/>
<path transform="matrix(1.00002,0,0,-1.00002,57.988817,81.1713)" stroke-width=".3985" stroke-linecap="butt" stroke-miterlimit="10" stroke-linejoin="miter" fill="none" stroke="#000000" d="M34.01608 62.36288 19.28687 70.867"/>
<path transform="matrix(1.00002,0,0,-1.00002,57.988817,81.1713)" stroke-width=".3985" stroke-linecap="butt" stroke-miterlimit="10" stroke-linejoin="miter" fill="none" stroke="#000000" d="M34.01608 62.36288H17.00783"/>
<path transform="matrix(1.00002,0,0,-1.00002,57.988817,81.1713)" stroke-width=".3985" stroke-linecap="butt" stroke-miterlimit="10" stroke-linejoin="miter" fill="none" stroke="#000000" d="M34.01608 62.36288 19.28687 53.85876"/>
<path transform="matrix(1.00002,0,0,-1.00002,57.988817,81.1713)" stroke-width=".3985" stroke-linecap="butt" stroke-miterlimit="10" stroke-linejoin="miter" fill="none" stroke="#000000" d="M34.01608 62.36288 25.51195 47.63367"/>
<path transform="matrix(1.00002,0,0,-1.00002,57.988817,81.1713)" stroke-width=".3985" stroke-linecap="butt" stroke-miterlimit="10" stroke-linejoin="miter" fill="none" stroke="#000000" d="M34.01608 62.36288V45.35464"/>
<path transform="matrix(1.00002,0,0,-1.00002,57.988817,81.1713)" stroke-width=".3985" stroke-linecap="butt" stroke-miterlimit="10" stroke-linejoin="miter" fill="none" stroke="#000000" d="M34.01608 62.36288 42.5202 47.63367"/>
<path transform="matrix(1.00002,0,0,-1.00002,57.988817,81.1713)" stroke-width=".3985" stroke-linecap="butt" stroke-miterlimit="10" stroke-linejoin="miter" fill="none" stroke="#000000" d="M34.01608 62.36288 48.74529 53.85876"/>
</svg>
